<?xml version="1.0" encoding="utf-8"?>
<!-- Generator: Adobe Illustrator 16.0.0, SVG Export Plug-In . SVG Version: 6.00 Build 0)  -->
<!DOCTYPE svg PUBLIC "-//W3C//DTD SVG 1.1//EN" "http://www.w3.org/Graphics/SVG/1.1/DTD/svg11.dtd">
<svg version="1.1" id="Layer_1" xmlns="http://www.w3.org/2000/svg" xmlns:xlink="http://www.w3.org/1999/xlink" x="0px" y="0px"
	 width="1116.429px" height="1229.215px" viewBox="-116.214 497.785 1116.429 1229.215"
	 enable-background="new -116.214 497.785 1116.429 1229.215" xml:space="preserve">
<g>
	<path d="M805.12,941.615c-0.405-1.047-0.851-2.086-1.334-3.121v-0.269c-1.274-0.437-2.16-1.356-2.654-2.468
		c-0.523-0.182-1.073-0.257-1.627-0.219c-2.024-0.912-4.719-3.422-4.719-4.92c0-0.6-1.6-1.699-3.5-2.4c-1.9-0.699-4-2.1-4.5-3.199
		c-0.6-1-2-1.9-3.1-1.9c-1.2,0-2.301-0.799-2.601-1.9c-0.3-1.1-1.7-2.299-3.2-2.6c-3.1-0.699-6.399-3.299-7.399-5.799
		c-0.3-0.9-1.601-1.701-2.7-1.701s-2-0.699-2-1.5c0-0.799-0.9-1.9-2-2.5s-2-1.699-2-2.5c0-0.799-0.5-1.5-1.2-1.5
		c-1.6,0-15.8-14.6-15.8-16.199c0-0.701-1.3-1.9-3-2.6c-1.6-0.801-3-2-3-2.801s-1.6-3-3.5-5c-1.9-1.9-3.5-4.301-3.5-5.301
		s-0.9-2.1-2-2.398c-1.1-0.301-2.2-1.701-2.6-3.301c-0.4-1.6-1.5-4-2.601-5.301c-1-1.299-1.8-2.799-1.8-3.398
		c0-0.5-0.6-1.5-1.4-2.102c-1.8-1.398-3-13.299-1.399-13.799c0.8-0.301,0.899-1.1,0.3-2.4c-0.4-1-0.7-2.5-0.6-3.199
		c0.1-0.801-0.2-1.9-0.801-2.5c-1-1.201-2.3-16.602-2.5-29.5c0-3.9-0.3-7.201-0.6-7.201s-0.6-1.6-0.7-3.5c-0.1-1.9,0.3-3.5,0.8-3.5
		c1.4,0,1.101-2-0.6-3.6c-1.4-1.4-2-4.1-1.6-7.199c0.1-0.801-0.2-1.9-0.7-2.5c-1.3-1.602-2.2-10.701-1.1-10.701
		c0.5,0,0.899-0.699,0.899-1.5c0-0.799-0.7-1.5-1.6-1.5c-1.101,0-1.4-0.5-1-1.6c0.399-0.9-0.3-4.9-1.4-8.9c-1.1-4-1.7-8-1.399-9
		c0.399-0.9,0.1-2-0.5-2.5c-0.7-0.4-1.5-2.6-1.801-4.9c-0.3-2.199-1-4.1-1.5-4.1c-0.399,0-0.6-1-0.3-2.299
		c0.4-1.5,0.101-2.801-0.899-3.602c-0.9-0.799-1.601-2.398-1.601-3.6c0-4.4-1.3-8.5-2.6-8.5c-1.4,0-1.8-1.1-1.5-4.299
		c0.1-0.9-0.4-1.701-1.3-1.701c-0.9,0-1.601-0.799-1.601-1.9c0-1-0.7-2.398-1.5-3.1c-0.899-0.699-1.3-2.1-1-3.1
		c0.4-1.1-0.2-2.699-1.399-4.1c-1.2-1.201-2.101-2.9-2.101-3.701c0-0.898-0.899-2.199-2-2.898c-1.1-0.701-2-2-2.1-3
		c0-0.9-0.8-2.9-1.7-4.301c-4.7-7.199-7.8-11.5-8.9-12.199c-0.699-0.4-2-2.301-2.899-4.201c-0.9-1.9-2.3-3.5-3-3.5
		c-0.8,0-1.9-1.199-2.4-2.6c-0.6-1.4-1.899-2.801-3-3.1c-1.1-0.301-2-1.4-2-2.4c0-1.1-0.399-1.9-1-1.9c-0.5,0-1-0.6-1-1.299
		c0-0.602-1.399-2-3.1-3c-1.7-0.9-3.3-2.5-3.601-3.5c-0.199-1-1.8-2.4-3.5-3.102c-1.699-0.799-3.3-2.199-3.5-3.199
		c-0.3-1.1-1.3-1.9-2.199-1.9c-0.9,0-2.101-1-2.601-2.299c-0.6-1.201-2-2.602-3.3-3.201c-1.2-0.5-2.5-1.799-2.8-2.699
		c-0.3-1-1.2-1.801-2-1.801c-0.9,0-3.5-1.6-5.8-3.5c-2.4-1.899-4.8-3.5-5.5-3.5c-0.601,0-1.101-0.399-1.101-0.899
		s-1.1-1.2-2.399-1.5s-2.601-1.5-2.9-2.601c-0.3-1.199-1.3-2-2.6-2c-1.2,0-2.101-0.6-2.101-1.399s-1.5-1.7-3.5-2
		c-1.899-0.399-3.5-1.101-3.5-1.601c0-0.6-0.899-1-2-1c-1.1,0-2.899-0.899-4-2c-1.1-1.1-3.1-2.199-4.399-2.6c-1.4-0.3-3-1.199-3.7-2
		c-0.6-0.8-2.4-1.4-4-1.4c-1.5,0-3.1-0.5-3.4-1c-0.3-0.6-1.5-1-2.6-1c-1.2,0-1.9-0.699-1.9-2c0-2.199-2.6-2.799-3.3-0.799
		c-0.3,0.899-1.1,0.699-2.8-0.701c-1.3-1.199-5-2.899-8.1-4c-3.2-1-5.801-2.199-5.801-2.699c0-0.4-1.399-0.801-3-0.801
		c-2.699,0-6.5-1.5-8-3c-0.3-0.299-3-1.199-6-1.899c-3.001-0.8-6.001-1.8-6.7-2.3c-0.6-0.5-1.699-0.801-2.5-0.6
		c-1.9,0.399-13.801-3.4-13.801-4.5c0-0.5-1.199-0.601-2.699-0.301c-1.699,0.4-4,0-5.699-0.9c-1.5-0.799-4.102-1.5-5.701-1.5
		c-1.5,0-3.1-0.5-3.4-1c-0.299-0.6-1.6-1-2.799-1c-1.201,0-4.701-0.899-7.701-2c-3-1.1-6-1.799-6.699-1.6
		c-0.699,0.301-1.5,0.1-1.801-0.4c-0.299-0.5-3-1.199-6-1.5c-3.1-0.399-5.799-1.1-6.1-1.6c-0.299-0.5-3.199-0.9-6.6-0.9
		c-5.199,0-6.1-0.299-6.5-2.1c-0.5-1.6-1.1-1.9-3.301-1.4c-1.5,0.301-4.699,0-7.1-0.799c-2.4-0.801-5.299-1.5-6.4-1.5
		c-1.1,0-6.5-0.701-12-1.601c-5.5-0.8-13.398-2-17.5-2.601c-1.648-0.24-3.311-0.531-4.777-0.83
		c-0.457,0.133-0.957,0.211-1.508,0.211c-1.726,0-2.985-0.72-3.787-1.769c-0.968-0.274-2.176-0.344-3.027-0.112
		c-1.23,0.41-3.225,0.382-4.97,0.109c-0.175-0.445-0.431-0.85-0.723-1.229H369.5c-2.282,0-3.752-1.254-4.419-2.873
		c-37.977-2.1-75.972-5.188-113.961-3.282c-0.484,0.129-1.024,0.187-1.619,0.155c-0.305-0.016-0.606-0.012-0.91-0.021
		c-3.039,0.17-6.077,0.381-9.116,0.619c-3.244,0.521-6.444,1.314-9.618,2.251c-0.084,0.098-0.168,0.196-0.245,0.3
		c-0.34,0.014-0.668,0.051-1.003,0.076c-5.642,1.729-11.205,3.846-16.779,5.597c-1.245,0.392-2.342,0.305-3.255-0.089
		c-0.239,0.021-0.483,0.028-0.731,0.016c-0.027,0.02-0.054,0.035-0.081,0.055c-0.129,0.092-0.247,0.188-0.363,0.285
		c-2.255,0.776-4.567,1.111-5.313,0.832c-0.8-0.301-1.8-0.2-2.2,0.4c-0.3,0.5-4.199,1.5-8.5,2.1c-4.3,0.5-8.199,1.5-8.5,2
		c-0.3,0.5-3.199,1.199-6.3,1.5c-3.2,0.3-6.3,0.9-7,1.3c-1.3,0.899-2.899,1.101-10.7,1.7c-2.899,0.3-5.699,1-6.199,1.8
		c-0.5,0.899-2.801,1.3-6.4,1.3c-4.9,0-5.6,0.301-5.2,1.801c0.4,1.5-0.2,1.799-3.899,1.799c-2.5,0-4.4,0.5-4.4,1.101
		c0,0.7-1.1,0.8-3,0.399c-2.3-0.5-3-0.299-3,0.9c0,1.1-0.9,1.6-3,1.6c-1.6,0-3,0.4-3,1c0,0.5-0.7,0.701-1.5,0.4
		c-0.8-0.3-2.2,0.1-3,1c-0.9,0.9-2.7,1.6-4.1,1.6c-1.301,0-2.4,0.4-2.4,1c0,0.5-0.6,1-1.4,1c-0.8,0-1.6,0.5-1.8,1.101
		c-0.2,0.5-1.9,1.101-3.8,1.101c-2.1,0.1-4,0.799-4.7,1.799c-0.7,1-3.5,2.301-6.3,3c-2.7,0.701-5,1.601-5,2.101
		s-0.9,0.899-1.9,0.899c-1.1,0-2.3,0.4-2.6,1c-0.3,0.5-1.7,1-3,1c-1.4,0-2.6,0.701-3,1.9c-0.3,1.2-1.9,2.1-4,2.5
		c-1.9,0.4-3.5,1.1-3.5,1.6s-0.7,0.701-1.5,0.301c-1-0.301-2.6,0.6-4.3,2.5c-1.5,1.6-4.2,3.3-5.9,3.699
		c-1.8,0.301-3.3,1.101-3.3,1.601s-0.7,0.899-1.5,0.899s-1.5,0.4-1.5,1c0,0.5-1.1,1.201-2.5,1.601c-1.4,0.3-2.5,1-2.5,1.5
		s-0.9,0.899-2,0.899s-2,0.4-2,0.9s-1.5,1.5-3.2,2.2c-1.8,0.7-4.4,2.399-5.8,3.601c-1.4,1.299-3.3,2.299-4.2,2.299
		c-1,0-1.8,0.701-1.8,1.5c0,1.5-1,1.9-4.2,1.601c-1-0.101-1.8,0.399-1.8,1.3s-0.4,1.6-1,1.6c-0.5,0-1,0.701-1,1.5
		c0,0.801-0.9,1.5-2,1.5s-2,0.4-2,1c0,0.5-0.6,1-1.4,1c-0.7,0-1.6,0.9-1.9,2c-0.3,1.1-1.2,2-2.1,2s-1.6,0.4-1.6,1c0,0.5-1.1,1-2.5,1
		s-2.5,0.4-2.5,1c0,1.4-10.5,12-11.8,12c-0.7,0-1.2,0.701-1.2,1.5c0,0.801-0.4,1.5-1,1.5c-0.5,0-1,0.701-1,1.5
		c0,0.801-0.7,1.5-1.5,1.5s-1.5,0.4-1.5,0.801c0,0.799-1.1,2.299-5,6.9c-0.5,0.699-1,1.699-1,2.299c0,0.5-0.7,1-1.5,1
		c-0.9,0-1.5,0.9-1.5,2.1c0,1.201-0.8,2.301-2,2.602c-1.3,0.299-2,1.398-2,2.898c0,1.201-0.4,2.602-1,2.9
		c-0.5,0.301-1.4,2.4-2,4.701c-0.8,2.6-1.8,4.199-3.1,4.5c-1.4,0.398-1.9,1.199-1.6,2.398c0.3,1.102,0.1,1.9-0.5,1.9
		c-0.6,0-0.8,0.9-0.5,2c0.3,1.301-0.2,2.5-1.5,3.4c-1.4,1-1.9,2.199-1.5,3.5c0.2,1.1-0.2,2.9-0.9,4c-1.7,2.4-5.4,13.5-5.4,16.199
		c0,2.5-2.1,6.9-3.3,6.9c-0.5,0-0.7,0.9-0.4,2c0.3,1.1,0.1,2-0.5,2c-0.6,0-0.8,0.9-0.5,2c0.3,1.1,0.1,2.301-0.4,2.6
		c-0.5,0.301-0.9,3.201-0.9,6.5c0,3.201-0.4,5.9-1,5.9c-0.5,0-0.9,1.201-0.9,2.701c0.1,1.6-0.6,8.199-1.5,14.799
		s-1.4,13.1-1.1,14.301c0.3,1.299,0,3-0.6,3.799c-0.9,1.102-0.9,2,0,3.701c0.7,1.299,1.4,7.6,1.6,14.699c0.1,6.9,0.5,13.201,0.8,14
		c0.3,0.801,1.1,4.9,1.7,9c0.7,4.1,1.7,7.9,2.2,8.4c0.4,0.6,0.8,2.799,0.8,5.1s0.4,4.5,1,5.1c0.5,0.5,1,3.201,1.1,5.9
		c0.1,2.801,0.5,5.4,0.9,6c0.4,0.5,1.8,3.9,3,7.5c1.3,3.6,2.6,6.9,3,7.5c0.4,0.5,1,2.301,1.4,4c1.1,4.4,4.3,11,6.1,12.5
		c0.8,0.701,1.5,2.5,1.5,4c0,1.9,0.9,3.6,2.5,4.801c1.4,1.1,2.5,2.898,2.5,4.1c0,1.199,0.9,2.9,2,3.799c1.1,1,2,2.301,2,3
		c0,0.701,0.7,1.301,1.5,1.301c0.8,0,1.5,0.5,1.5,1.1s1.1,2.4,2.5,4.1c1.4,1.602,2.5,3.5,2.5,4.102c0,0.699,0.9,1.799,2,2.398
		c1.1,0.701,2.9,3.301,4,5.801c1.2,2.5,2.9,4.9,3.9,5.301c2.2,0.898,6.9,6.199,10.5,11.898c1.4,2.4,3.1,4.301,3.8,4.301
		c2,0,4.8,3.201,4.8,5.6c0,1.602,0.9,2.5,3,3.301c1.7,0.5,3,1.699,3,2.6s0.8,1.9,1.7,2.201c2.6,1,8.3,7,8.3,8.799
		c0,0.801,0.7,1.5,1.5,1.5c0.8,0,1.5,0.4,1.5,0.801c0,0.5,1.6,1.4,3.5,2.199c2.2,0.9,3.5,2,3.5,3.201c0,1.199,0.7,1.799,2.1,1.799
		c1.2,0,2.3,0.801,2.6,2c0.3,1.1,1.1,2,1.8,2c0.7,0,4.1,2.1,7.5,4.701c3.5,2.699,7.1,5.299,8.2,5.898c1,0.602,3.4,2.5,5.3,4.201
		c1.9,1.799,4.4,3.199,5.5,3.199s2.5,0.9,3.2,2c0.7,1.1,1.9,2,2.6,2c0.7,0,3,1.201,5.2,2.6c4,2.701,4.5,4,4,10.102
		c-0.1,1.199,0.4,3.1,0.9,4.199c0.9,1.6,0.8,2.199-0.6,3c-1.5,0.801-1.6,1.199-0.3,3.6c1,1.801,1.1,2.801,0.3,3.301
		c-1.6,1.1-2.7,8.199-1.2,8.199c0.8,0,1,1.301,0.4,4.801c-0.4,2.6-0.8,6.9-1,9.6s-0.8,5.199-1.4,5.6c-0.6,0.301-1.1,2.201-1.1,4.1
		c-0.1,6.201-0.7,13-1.4,13.602c-0.3,0.299-0.6,2.1-0.6,4c0,2.1-0.6,3.6-1.5,3.898c-1.8,0.701-2,3.4-0.3,3.4
		c0.9,0,0.9,0.301,0,1.201c-0.7,0.699-1.2,2.1-1.2,3.299c0,2.5-2.2,7.5-3.2,7.5c-1.4,0-0.9,3,0.5,3c0.9,0,0.9,0.201,0,0.801
		c-0.6,0.4-1.5,2.5-1.9,4.699c-0.4,2.201-1.5,4.701-2.6,5.6c-2.1,1.9-2.3,3.602-0.6,4.102c0.9,0.299,0.8,1.299-0.4,3.898
		c-0.9,1.9-2,4.602-2.3,6.201c-0.4,1.5-1.1,3-1.6,3.299c-0.5,0.301-0.9,1.701-0.9,3.102c0,1.699-0.7,2.699-2.1,3
		c-1.6,0.398-1.9,1.1-1.5,2.898c0.4,1.4,0,2.9-1,3.9c-0.9,0.801-1.3,2.201-1,3c0.3,0.801-0.1,2.1-0.9,2.9s-1.5,2.1-1.5,3
		c0,0.801-0.9,2-2.1,2.699c-1.5,0.701-1.9,1.701-1.5,3.201c0.4,1.6-0.2,2.799-2,4.4c-1.6,1.398-2.4,2.799-2.1,3.799
		c0.4,0.801,0.2,1.5-0.3,1.5c-0.6,0-1,0.9-1,2s-0.6,2.301-1.4,2.6c-0.8,0.301-1.9,1.9-2.5,3.5c-0.5,1.602-1.4,2.9-1.9,2.9
		c-0.4,0-1.6,1.801-2.6,4c-1,2.201-2.1,4-2.6,4c-0.4,0-1.1,1.1-1.4,2.5c-0.4,1.4-1.3,2.5-2.1,2.5s-1.5,0.9-1.5,2s-0.4,2-1,2
		c-0.5,0-1,0.701-1,1.5c0,0.801-0.7,1.5-1.5,1.5s-1.5,0.701-1.5,1.5c0,0.9-0.6,1.801-1.4,2.1c-0.8,0.301-1.7,1.602-2,3
		c-0.4,1.301-1.1,2.4-1.6,2.4c-0.6,0-1,0.6-1,1.4c0,1.9-9.2,13.6-10.7,13.6c-0.7,0-1.3,0.9-1.3,2s-0.4,2-1,2c-0.5,0-1,0.801-1,1.9
		c0,1-1.6,3.5-3.5,5.5c-1.697,1.875-3.146,3.903-3.438,4.886c25.753-4.385,51.995-3.017,77.995-2.248
		c29.932,0.885,60.067-1.3,89.9,1.922c14.608,1.578,29.292,4.925,44.057,3.923c7.729-0.524,15.304-2.335,23.06-2.79
		c6.997-0.41,14.001-0.379,21.001-0.025c15.522,0.783,30.958,2.421,46.513,2.862c15.705,0.445,31.416,0.451,47.126,0.451
		c3.869,0,5.414,3.599,4.64,6.479c8.384-0.652,16.774-1.17,25.235-1.504c15.727-0.621,30.749-6.694,46.425-7.147
		c24.41-0.704,49.591,6.408,73.877,2.894c-0.042-2.218-0.238-4.396-0.591-5.102c-0.701-1.9-1-10-0.301-10c0.4,0,0.6-3.4,0.5-7.699
		c0-6.6,0.301-7.701,1.801-8.1c1.299-0.301,1.699-1.102,1.299-2.5c-0.6-2.5,1-5.701,2.9-5.701c0.801,0,1.5-0.799,1.5-1.799
		c0.1-1.102,2-2.602,5.301-4.201c2.9-1.4,5.6-3,6-3.699c0.4-0.701,2.1-1.301,3.6-1.301c2,0,3-0.6,3.4-1.9
		c0.299-1.299,1.699-2.1,4.6-2.6c2.199-0.4,4.1-1,4.1-1.5c0-0.4,2-1.1,4.501-1.4c2.5-0.398,4.5-1.1,4.5-1.6
		c0-1.4,14.3-5.299,19.8-5.4c2.8,0,5.2-0.398,5.2-0.799s1.8-1.1,4-1.4c2.2-0.4,4-1.1,4-1.6c0-0.6,1.4-0.801,3.5-0.4
		s3.5,0.301,3.5-0.301c0-0.6,0.7-0.799,1.5-0.5c0.8,0.4,2.2,0.102,2.9-0.5c0.899-0.799,5-1.199,10.8-1.199
		c20.1,0.199,49.399-1.5,50.3-2.9c0.2-0.299,3.8-0.5,7.9-0.4c4.199,0.201,7.6,0,7.6-0.5c0-0.398,2.5-0.6,5.5-0.5
		c4.3,0.201,5.5,0,5.5-1.199c0-1.1,1.4-1.4,6-1.4c6,0,20.1-2.4,23.1-4c0.9-0.5,3.4-1.299,5.601-1.9c2.1-0.6,4.899-2,6.1-3.1
		c1.101-1.1,2.601-2,3.2-2c0.5,0,1-0.5,1-1c0-0.6,0.7-1,1.5-1s1.5-0.699,1.5-1.5c0-0.799,0.4-1.5,0.9-1.5s1.6-1.6,2.5-3.5
		c0.899-1.9,2.1-3.5,2.5-3.5c0.899,0,4.1-12.1,4.1-15.299c0-1,0.7-2.602,1.6-3.4c0.9-1,1.301-2.5,1-3.701
		c-0.3-1.199-0.899-4.6-1.3-7.5c-0.3-3-1.2-6.6-2-8c-0.7-1.5-1.3-3.5-1.3-4.5c0-1.1-1.1-3.398-2.6-5.299
		c-1.4-1.801-2-3.301-1.5-3.301c0.6,0,1.1-0.699,1.1-1.5c0-0.799-0.7-1.5-1.5-1.5s-1.8-1.5-2.3-3.299c-0.5-1.701-1.4-3.102-1.9-3
		c-1.3,0.299,0.8-6.201,2.5-7.9c0.7-0.701,1.2-1.6,1.2-2.1c0-1.301,7.5-8.701,8.9-8.701c0.6,0,1.1-0.4,1.1-0.9s1.1-1.199,2.5-1.5
		c1.4-0.398,2.5-1.1,2.5-1.6c0-0.6,0.6-1,1.4-1c1.6,0,3.1-3.4,2.1-5c-0.3-0.5-0.1-1,0.4-1c1.699,0,1.3-1.799-0.9-4
		c-1.1-1.1-2-2.699-2-3.5c0-0.799-0.7-1.5-1.5-1.5c-0.9,0-1.5-0.9-1.5-2.4c0-1.6-0.7-2.6-2.2-3c-2.7-0.799-3-0.6,8-4.699
		c3.4-1.301,6.2-2.9,6.2-3.6c0-0.701,0.4-1.301,0.9-1.301s1.3-1,1.699-2.199c0.4-1.301,1.4-2.801,2.2-3.4c1-0.699,1.3-1.699,0.7-3
		c-0.4-1-0.9-3.699-1.1-5.9c-0.2-2.199-1.101-5.4-1.9-7c-0.8-1.699-1.7-4.699-2-6.799c-0.3-2.102-1.2-3.701-1.9-3.701
		c-0.8,0-1.6-0.9-1.899-2s-0.101-2,0.399-2s0.9-0.699,0.9-1.5c0-0.9,1.4-1.699,3.8-2c3.5-0.6,6.3-1.4,13.8-3.6
		c1.7-0.5,3.801-0.9,4.7-0.9c0.9,0,1.7-0.4,1.7-0.9s1.2-1.1,2.8-1.398c6.8-1.4,8.8-2.102,9.5-3.301c0.4-0.699,2.3-1.6,4.2-2
		c1.9-0.301,3.5-1,3.5-1.5c0-0.4,1.6-1.1,3.5-1.5c2-0.301,3.5-1.199,3.5-2c0-0.678,0.361-1.188,0.775-1.334
		c0.09,0.039,0.181,0.076,0.273,0.111c0.04,0.27,0.079,0.902,0.116,1.858c0.521-0.31,1.135-0.52,1.835-0.607v-0.964
		c1.034-0.072,2.086-0.502,3.035-1.43C815.701,959.486,812.535,949.012,805.12,941.615z"/>
	<g>
		<path fill="none" stroke="#000000" stroke-width="100" d="M-116.214,547.785c7.664,0,15.329,0,22.993,0"/>
		<line fill="none" stroke="#000000" stroke-width="100" x1="-116.214" y1="1666.836" x2="-80.214" y2="1666.836"/>
		<line fill="none" stroke="#000000" stroke-width="100" x1="-62.214" y1="1727" x2="-62.214" y2="1686.891"/>
		<line fill="none" stroke="#000000" stroke-width="100" x1="1000.215" y1="1666.836" x2="964.215" y2="1666.836"/>
		<line fill="none" stroke="#000000" stroke-width="100" x1="946.215" y1="1727" x2="946.215" y2="1686.891"/>
	</g>
</g>
</svg>
