<?xml version="1.0" encoding="utf-8"?>
<!-- Generator: Adobe Illustrator 16.0.0, SVG Export Plug-In . SVG Version: 6.00 Build 0)  -->
<!DOCTYPE svg PUBLIC "-//W3C//DTD SVG 1.1//EN" "http://www.w3.org/Graphics/SVG/1.1/DTD/svg11.dtd">
<svg version="1.1" id="Layer_1" xmlns="http://www.w3.org/2000/svg" xmlns:xlink="http://www.w3.org/1999/xlink" x="0px" y="0px"
	 width="1000px" height="1000px" viewBox="-126 4 1000 1000" enable-background="new -126 4 1000 1000" xml:space="preserve">
<path d="M768.12,685.495c-0.405-1.046-0.851-2.086-1.334-3.12V287H337.383c-47.017-2.349-94.065-6.981-141.098-2.5
	c-1.653,0.157-2.877,0.952-3.675,2.028c-1.454,0.06-2.859,0.219-4.221,0.472h-421.604v1000h1000V713.464
	c1.034-0.071,2.086-0.502,3.035-1.429C778.701,703.366,775.535,692.893,768.12,685.495z M165.085,293.3c-0.8-0.3-1.8-0.2-2.2,0.4
	c-0.3,0.5-4.199,1.5-8.5,2.1c-4.3,0.5-8.199,1.5-8.5,2c-0.3,0.5-3.199,1.2-6.3,1.5c-3.2,0.3-6.3,0.9-7,1.3
	c-1.3,0.9-2.899,1.1-10.7,1.7c-2.899,0.3-5.699,1-6.199,1.8c-0.5,0.9-2.801,1.3-6.4,1.3c-4.9,0-5.6,0.3-5.2,1.8
	c0.4,1.5-0.2,1.8-3.899,1.8c-2.5,0-4.4,0.5-4.4,1.1c0,0.7-1.1,0.8-3,0.4c-2.3-0.5-3-0.3-3,0.9c0,1.1-0.9,1.6-3,1.6c-1.6,0-3,0.4-3,1
	c0,0.5-0.7,0.7-1.5,0.4c-0.8-0.3-2.2,0.1-3,1c-0.9,0.9-2.7,1.6-4.1,1.6c-1.301,0-2.4,0.4-2.4,1c0,0.5-0.6,1-1.4,1
	c-0.8,0-1.6,0.5-1.8,1.1c-0.2,0.5-1.9,1.1-3.8,1.1c-2.1,0.1-4,0.8-4.7,1.8c-0.7,1-3.5,2.3-6.3,3c-2.7,0.7-5,1.6-5,2.1
	s-0.9,0.9-1.9,0.9c-1.1,0-2.3,0.4-2.6,1c-0.3,0.5-1.7,1-3,1c-1.4,0-2.6,0.7-3,1.9c-0.3,1.2-1.9,2.1-4,2.5c-1.9,0.4-3.5,1.1-3.5,1.6
	s-0.7,0.7-1.5,0.3c-1-0.3-2.6,0.6-4.3,2.5c-1.5,1.6-4.2,3.3-5.9,3.7c-1.8,0.3-3.3,1.1-3.3,1.6s-0.7,0.9-1.5,0.9s-1.5,0.4-1.5,1
	c0,0.5-1.1,1.2-2.5,1.6c-1.4,0.3-2.5,1-2.5,1.5s-0.9,0.9-2,0.9s-2,0.4-2,0.9s-1.5,1.5-3.2,2.2c-1.8,0.7-4.4,2.4-5.8,3.6
	c-1.4,1.3-3.3,2.3-4.2,2.3c-1,0-1.8,0.7-1.8,1.5c0,1.5-1,1.9-4.2,1.6c-1-0.1-1.8,0.4-1.8,1.3s-0.4,1.6-1,1.6c-0.5,0-1,0.7-1,1.5
	s-0.9,1.5-2,1.5s-2,0.4-2,1c0,0.5-0.6,1-1.4,1c-0.7,0-1.6,0.9-1.9,2c-0.3,1.1-1.2,2-2.1,2s-1.6,0.4-1.6,1c0,0.5-1.1,1-2.5,1
	s-2.5,0.4-2.5,1c0,1.4-10.5,12-11.8,12c-0.7,0-1.2,0.7-1.2,1.5s-0.4,1.5-1,1.5c-0.5,0-1,0.7-1,1.5s-0.7,1.5-1.5,1.5
	s-1.5,0.4-1.5,0.8c0,0.8-1.1,2.3-5,6.9c-0.5,0.7-1,1.7-1,2.3c0,0.5-0.7,1-1.5,1c-0.9,0-1.5,0.9-1.5,2.1c0,1.2-0.8,2.3-2,2.6
	c-1.3,0.3-2,1.4-2,2.9c0,1.2-0.4,2.6-1,2.9c-0.5,0.3-1.4,2.4-2,4.7c-0.8,2.6-1.8,4.2-3.1,4.5c-1.4,0.4-1.9,1.2-1.6,2.4
	c0.3,1.1,0.1,1.9-0.5,1.9c-0.6,0-0.8,0.9-0.5,2c0.3,1.3-0.2,2.5-1.5,3.4c-1.4,1-1.9,2.2-1.5,3.5c0.2,1.1-0.2,2.9-0.9,4
	c-1.7,2.4-5.4,13.5-5.4,16.2c0,2.5-2.1,6.9-3.3,6.9c-0.5,0-0.7,0.9-0.4,2c0.3,1.1,0.1,2-0.5,2c-0.6,0-0.8,0.9-0.5,2
	c0.3,1.1,0.1,2.3-0.4,2.6c-0.5,0.3-0.9,3.2-0.9,6.5c0,3.2-0.4,5.9-1,5.9c-0.5,0-0.9,1.2-0.9,2.7c0.1,1.6-0.6,8.2-1.5,14.8
	c-0.9,6.6-1.4,13.1-1.1,14.3c0.3,1.3,0,3-0.6,3.8c-0.9,1.101-0.9,2,0,3.7c0.7,1.3,1.4,7.601,1.6,14.7c0.1,6.9,0.5,13.2,0.8,14
	c0.3,0.8,1.1,4.9,1.7,9c0.7,4.1,1.7,7.9,2.2,8.4c0.4,0.6,0.8,2.799,0.8,5.1c0,2.3,0.4,4.5,1,5.1c0.5,0.5,1,3.2,1.1,5.9
	c0.1,2.8,0.5,5.4,0.9,6c0.4,0.5,1.8,3.9,3,7.5c1.3,3.6,2.6,6.9,3,7.5c0.4,0.5,1,2.3,1.4,4c1.1,4.4,4.3,11,6.1,12.5
	c0.8,0.7,1.5,2.5,1.5,4c0,1.9,0.9,3.6,2.5,4.8c1.4,1.101,2.5,2.899,2.5,4.101c0,1.199,0.9,2.899,2,3.799c1.1,1,2,2.301,2,3
	c0,0.701,0.7,1.301,1.5,1.301c0.8,0,1.5,0.5,1.5,1.1s1.1,2.4,2.5,4.1c1.4,1.601,2.5,3.5,2.5,4.101c0,0.7,0.9,1.8,2,2.399
	c1.1,0.701,2.9,3.301,4,5.801c1.2,2.5,2.9,4.9,3.9,5.3c2.2,0.899,6.9,6.2,10.5,11.899c1.4,2.4,3.1,4.301,3.8,4.301
	c2,0,4.8,3.2,4.8,5.6c0,1.601,0.9,2.5,3,3.3c1.7,0.5,3,1.7,3,2.601c0,0.899,0.8,1.899,1.7,2.2c2.6,1,8.3,7,8.3,8.8
	c0,0.8,0.7,1.5,1.5,1.5c0.8,0,1.5,0.399,1.5,0.8c0,0.5,1.6,1.4,3.5,2.2c2.2,0.899,3.5,2,3.5,3.2s0.7,1.8,2.1,1.8
	c1.2,0,2.3,0.8,2.6,2c0.3,1.1,1.1,2,1.8,2c0.7,0,4.1,2.1,7.5,4.7c3.5,2.7,7.1,5.3,8.2,5.899c1,0.601,3.4,2.5,5.3,4.2
	c1.9,1.8,4.4,3.2,5.5,3.2s2.5,0.9,3.2,2c0.7,1.1,1.9,2,2.6,2c0.7,0,3,1.2,5.2,2.6c4,2.7,4.5,4,4,10.101c-0.1,1.2,0.4,3.1,0.9,4.2
	c0.9,1.6,0.8,2.199-0.6,3c-1.5,0.8-1.6,1.199-0.3,3.6c1,1.8,1.1,2.8,0.3,3.3c-1.6,1.101-2.7,8.2-1.2,8.2c0.8,0,1,1.3,0.4,4.8
	c-0.4,2.601-0.8,6.9-1,9.601c-0.2,2.699-0.8,5.199-1.4,5.6c-0.6,0.3-1.1,2.2-1.1,4.1c-0.1,6.2-0.7,13-1.4,13.601
	c-0.3,0.3-0.6,2.1-0.6,4c0,2.1-0.6,3.6-1.5,3.899c-1.8,0.7-2,3.4-0.3,3.4c0.9,0,0.9,0.3,0,1.2c-0.7,0.7-1.2,2.1-1.2,3.3
	c0,2.5-2.2,7.5-3.2,7.5c-1.4,0-0.9,3,0.5,3c0.9,0,0.9,0.2,0,0.8c-0.6,0.4-1.5,2.5-1.9,4.7s-1.5,4.7-2.6,5.6
	c-2.1,1.9-2.3,3.601-0.6,4.101c0.9,0.3,0.8,1.3-0.4,3.899c-0.9,1.9-2,4.601-2.3,6.2c-0.4,1.5-1.1,3-1.6,3.3
	c-0.5,0.301-0.9,1.7-0.9,3.101c0,1.7-0.7,2.7-2.1,3c-1.6,0.399-1.9,1.1-1.5,2.899c0.4,1.4,0,2.9-1,3.9c-0.9,0.8-1.3,2.2-1,3
	c0.3,0.8-0.1,2.1-0.9,2.9c-0.8,0.8-1.5,2.1-1.5,3c0,0.8-0.9,2-2.1,2.699c-1.5,0.7-1.9,1.7-1.5,3.2c0.4,1.601-0.2,2.8-2,4.4
	c-1.6,1.399-2.4,2.8-2.1,3.8c0.4,0.8,0.2,1.5-0.3,1.5c-0.6,0-1,0.9-1,2s-0.6,2.3-1.4,2.6c-0.8,0.301-1.9,1.9-2.5,3.5
	c-0.5,1.601-1.4,2.9-1.9,2.9c-0.4,0-1.6,1.8-2.6,4s-2.1,4-2.6,4c-0.4,0-1.1,1.1-1.4,2.5c-0.4,1.4-1.3,2.5-2.1,2.5s-1.5,0.9-1.5,2
	s-0.4,2-1,2c-0.5,0-1,0.7-1,1.5s-0.7,1.5-1.5,1.5s-1.5,0.7-1.5,1.5c0,0.9-0.6,1.8-1.4,2.1c-0.8,0.301-1.7,1.601-2,3
	c-0.4,1.301-1.1,2.4-1.6,2.4c-0.6,0-1,0.6-1,1.4c0,1.899-9.2,13.6-10.7,13.6c-0.7,0-1.3,0.9-1.3,2s-0.4,2-1,2c-0.5,0-1,0.8-1,1.9
	c0,1-1.6,3.5-3.5,5.5c-1.9,2.1-3.5,4.399-3.5,5.199c0,0.801-0.7,1.4-1.5,1.4s-1.5,0.9-1.5,2s-0.4,2-1,2c-0.5,0-1,0.5-1,1.1
	c0,0.601-1.4,2.4-3,3.9c-1.7,1.5-3,3.2-3,3.7s-0.9,1.6-2,2.6c-1.1,0.9-2,2.4-2,3.2s-0.5,1.5-1,1.5c-0.6,0-1.5,1.1-2,2.5
	s-1.4,2.5-2,2.5c-0.5,0-1,0.7-1,1.5s-0.4,1.5-1,1.5c-0.5,0-1,0.7-1,1.5s-0.5,1.5-1.1,1.5c-1.8,0-4.1,3-3.5,4.5
	c0.3,0.9,0,1.5-0.9,1.5c-0.8,0-1.5,0.7-1.5,1.5s-0.7,1.5-1.5,1.5c-0.9,0-1.5,1-1.5,2.6c0,1.7-0.6,2.801-2,3.101
	c-1.1,0.3-2,0.899-2,1.399c0,2-8,12.9-9.5,12.9c-0.5,0-1.9,1.8-2.9,4c-1.1,2.2-2.3,4-2.8,4c-0.4,0-0.8,0.7-0.8,1.5
	c0,0.9-0.6,1.8-1.4,2.1c-0.8,0.301-1.7,1.601-2,3c-0.4,1.5-1.4,2.4-2.6,2.4c-1.4,0-2,0.8-2.2,3.2c-0.2,2.3-1,3.6-2.5,4.3
	c-1.3,0.5-2.3,1.5-2.3,2.2s-0.4,1.3-0.9,1.3s-1.2,1.1-1.5,2.5c-0.4,1.4-1.1,2.5-1.6,2.5c-0.6,0-1,0.7-1,1.5s-1.1,1.7-2.5,2.1
	c-1.8,0.4-2.5,1.301-2.5,3c0,1.301-1.1,3.4-2.4,4.7c-1.3,1.3-2.9,3.4-3.6,4.8c-1.3,2.4-1.9,3.2-6,7.7c-1.1,1.2-2,2.7-2,3.2
	c0,0.6-1.1,1.6-2.5,2.2c-1.6,0.7-2.5,1.899-2.5,3.5c0,1.2-0.6,2.3-1.3,2.3c-0.6,0-1.8,1.3-2.5,2.9c-0.7,1.6-2.2,3.899-3.3,5.199
	c-1.1,1.301-2.9,3.801-4,5.601s-2.5,3.3-3,3.3s-0.9,0.6-0.9,1.3s-0.9,2-2,3c-1.1,0.9-2,2.4-2,3.2s-0.4,1.5-1,1.5c-0.5,0-1,0.6-1,1.4
	c0,0.8-0.6,1.6-1.4,1.899c-0.8,0.3-2,2.2-2.7,4.101c-0.7,2-1.9,3.6-2.6,3.6c-0.7,0-1.3,0.9-1.3,2s-0.7,2-1.5,2s-1.5,0.7-1.5,1.5
	s-0.7,1.5-1.5,1.5c-0.9,0-1.5,1-1.5,2.6c0,1.7-0.6,2.801-1.9,3.101c-1.1,0.3-2.1,1.7-2.5,3.399c-0.4,2.101-1.1,2.9-2.6,2.9
	c-1.4,0-2.1,0.6-1.9,1.7c0.3,3.3-0.1,4.3-1.6,4.3c-0.8,0-1.5,0.6-1.5,1.4c0,2.699-5,10.6-6.7,10.6c-0.6,0-1.4,1.4-1.8,3
	c-0.4,1.7-1,3-1.5,3s-1.1,1.4-1.5,3c-0.4,1.7-1.3,3-2.1,3c-0.8,0-1.4,0.9-1.4,2s-0.7,2.3-1.5,2.6c-0.8,0.4-1.5,1.301-1.5,2.101
	c0,0.7-1.1,2.5-2.5,3.899c-1.4,1.4-2.5,3.4-2.5,4.5c0,1.101-0.6,2.2-1.3,2.5c-0.7,0.2-2.2,2.5-3.2,4.9c-1.1,2.5-2.6,4.5-3.3,4.5
	c-0.7,0-1.2,0.8-1.1,1.7c0.3,2.8-1.9,7.3-3.6,7.3c-0.8,0-1.5,0.6-1.5,1.3s-0.8,3.101-1.8,5.3c-1,2.101-3,6.301-4.3,9.101
	c-1.3,2.899-3,5.3-3.6,5.3c-0.8,0-1.3,1.4-1.3,3.5c0,2.2-0.6,3.8-1.5,4.1c-0.9,0.4-1.5,1.9-1.5,3.601c0,1.899-0.4,2.8-1.3,2.6
	c-0.9-0.399-1.3-99.2-1.5-488.899c-0.1-268.601,0-489,0.3-489.7c0.3-0.9,43.3-1.2,209.9-1.2c98.55,0,175.954,0.267,201.211,0.637
	c-3.03,0.53-5.941,1.633-8.634,3.546c-0.129,0.092-0.247,0.188-0.363,0.286C168.144,293.245,165.832,293.58,165.085,293.3z
	 M765.586,999.2l-0.3,286.3h-120.1l-4.5-4.2c-2.4-2.399-4.7-4.3-5.101-4.3c-0.5,0-0.8-0.9-0.8-2s-0.7-2-1.5-2s-1.5-0.5-1.5-1
	c0-0.6-0.6-1-1.4-1c-0.8,0-2.1-0.8-2.8-1.8s-2.1-2.101-3-2.5c-1-0.3-1.8-1.601-1.8-2.7c0-1.3-0.7-2-2-2c-1.4,0-2-0.7-2-2.1
	c0-1.601-0.5-2-2-1.601c-1.5,0.4-2,0-2-1.399c0-1.101-0.7-1.9-1.7-1.9c-2.3,0-6.3-4-6.3-6.3c0-1.4-0.5-1.8-2-1.4c-1.2,0.3-2,0-2-0.7
	c0-0.699-0.9-2.1-2-3.1s-2-2.4-2-3.1c0-0.7-1.4-2.301-3-3.601c-1.6-1.2-3-3-3-4c0-1.1-0.7-1.8-1.8-1.8c-1.6,0-3.2-2-4.7-6.2
	c-0.4-0.899-1.5-1.8-2.6-2.1c-1-0.3-1.9-1.2-1.9-2.101c0-0.899-0.5-1.6-1-1.6c-0.6,0-1.4-0.8-1.7-1.7c-0.399-1-1.7-2.6-3-3.6
	s-2.3-2.3-2.3-2.8s-1.3-2.2-3-3.7c-1.6-1.6-3-3.4-3-3.9c0-0.6-2.5-3.399-5.5-6.2c-3-2.899-5.5-5.6-5.5-6c0-0.399-1.3-1.699-3-2.899
	c-1.6-1.3-3-2.9-3-3.7s-0.7-1.5-1.5-1.5s-1.5-0.7-1.5-1.5s-0.7-1.5-1.5-1.5s-1.5-0.5-1.5-1.1c0-1.5-3.8-4.601-7.8-6.4
	c-1.8-0.8-3.5-2.2-3.9-3.2c-0.8-2.2-3.3-4.2-5.2-4.3c-0.699,0-3.399-1.7-6-3.8c-2.5-2.101-5.3-4.2-6.1-4.5
	c-3.9-1.8-9.6-5.7-16.201-11.2c-4-3.4-8.399-6.8-9.899-7.7c-1.4-0.899-4-3.6-5.9-6.1c-1.9-2.4-4.4-4.8-5.5-5.3s-2.1-1.9-2.3-3.2
	c-0.2-1.2-1-2.2-1.7-2.2c-0.8,0-1.6-0.9-2-1.9c-0.3-1-1.4-2.1-2.5-2.399c-1.2-0.3-1.7-1.101-1.4-2.3c0.4-1.4-0.3-2.2-2.5-3.101
	c-2.5-0.899-3.1-1.7-3.1-4.2c0-1.699-0.5-3.1-1-3.1c-0.6,0-1.6-1.1-2.2-2.5c-0.6-1.4-1.7-2.5-2.5-2.5s-1.3-1.2-1.3-3
	c0-1.7-0.4-3-0.9-3s-0.699-0.9-0.399-2c0.399-1.3,0-2-1-2c-0.8,0-1.7-1-2.101-2.3c-1-3.7-0.699-9.7,0.5-9.7c0.601,0,0.9-0.9,0.601-2
	c-0.3-1.3,0-2,0.8-2c0.9,0,1.3-1.1,1.3-2.9c-0.1-3,2.2-9.1,3.4-9.1c0.5,0,0.8-1.4,0.8-3c0-1.7,0.5-3,1-3c0.6,0,1-0.7,1-1.5
	s0.3-1.5,0.8-1.5c0.8,0,3.2-9.2,3.2-12.2c0-0.899,0.5-1.8,1.2-2c1.3-0.5,2-29.8,0.7-29.8c-1.5,0-3.2-12.2-3-21
	c0-2.5-0.2-5.2-0.601-6c-0.7-1.9-1-10-0.3-10c0.4,0,0.6-3.4,0.5-7.7c0-6.6,0.3-7.7,1.8-8.1c1.3-0.3,1.7-1.101,1.3-2.5
	c-0.6-2.5,1-5.7,2.9-5.7c0.8,0,1.5-0.8,1.5-1.8c0.1-1.101,2-2.601,5.3-4.2c2.9-1.4,5.601-3,6-3.7c0.4-0.7,2.101-1.3,3.601-1.3
	c2,0,3-0.6,3.399-1.9c0.3-1.3,1.7-2.1,4.601-2.6c2.199-0.4,4.1-1,4.1-1.5c0-0.4,2-1.1,4.5-1.4c2.5-0.399,4.5-1.1,4.5-1.6
	c0-1.4,14.3-5.3,19.8-5.4c2.8,0,5.2-0.399,5.2-0.8c0-0.399,1.8-1.1,4-1.399c2.2-0.4,4-1.101,4-1.601c0-0.6,1.4-0.8,3.5-0.399
	c2.1,0.399,3.5,0.3,3.5-0.301c0-0.6,0.7-0.8,1.5-0.5c0.8,0.4,2.2,0.101,2.9-0.5c0.899-0.8,5-1.199,10.8-1.199
	c20.1,0.199,49.399-1.5,50.3-2.9c0.2-0.3,3.8-0.5,7.9-0.4c4.199,0.2,7.6,0,7.6-0.5c0-0.399,2.5-0.6,5.5-0.5c4.3,0.2,5.5,0,5.5-1.199
	c0-1.101,1.4-1.4,6-1.4c6,0,20.1-2.4,23.1-4c0.9-0.5,3.4-1.3,5.601-1.9c2.1-0.6,4.899-2,6.1-3.1c1.101-1.1,2.601-2,3.2-2
	c0.5,0,1-0.5,1-1c0-0.6,0.7-1,1.5-1s1.5-0.7,1.5-1.5s0.4-1.5,0.9-1.5s1.6-1.6,2.5-3.5c0.899-1.9,2.1-3.5,2.5-3.5
	c0.899,0,4.1-12.1,4.1-15.3c0-1,0.7-2.601,1.6-3.4c0.9-1,1.301-2.5,1-3.7c-0.3-1.199-0.899-4.6-1.3-7.5c-0.3-3-1.2-6.6-2-8
	c-0.7-1.5-1.3-3.5-1.3-4.5c0-1.1-1.1-3.399-2.6-5.3c-1.4-1.8-2-3.3-1.5-3.3c0.6,0,1.1-0.7,1.1-1.5s-0.7-1.5-1.5-1.5
	s-1.8-1.5-2.3-3.3c-0.5-1.7-1.4-3.101-1.9-3c-1.3,0.3,0.8-6.2,2.5-7.9c0.7-0.7,1.2-1.6,1.2-2.1c0-1.3,7.5-8.7,8.9-8.7
	c0.6,0,1.1-0.4,1.1-0.9s1.1-1.199,2.5-1.5c1.4-0.399,2.5-1.1,2.5-1.6c0-0.6,0.6-1,1.4-1c1.6,0,3.1-3.4,2.1-5c-0.3-0.5-0.1-1,0.4-1
	c1.699,0,1.3-1.8-0.9-4c-1.1-1.1-2-2.7-2-3.5s-0.7-1.5-1.5-1.5c-0.9,0-1.5-0.9-1.5-2.4c0-1.6-0.7-2.6-2.2-3c-2.7-0.8-3-0.6,8-4.699
	c3.4-1.301,6.2-2.9,6.2-3.601s0.4-1.3,0.9-1.3s1.3-1,1.699-2.2c0.4-1.3,1.4-2.8,2.2-3.399c1-0.7,1.3-1.7,0.7-3
	c-0.4-1-0.9-3.7-1.1-5.9c-0.2-2.2-1.101-5.4-1.9-7c-0.8-1.7-1.7-4.7-2-6.8c-0.3-2.101-1.2-3.7-1.9-3.7c-0.8,0-1.6-0.9-1.899-2
	s-0.101-2,0.399-2s0.9-0.7,0.9-1.5c0-0.9,1.4-1.7,3.8-2c3.5-0.6,6.3-1.4,13.8-3.6c1.7-0.5,3.801-0.9,4.7-0.9c0.9,0,1.7-0.4,1.7-0.9
	s1.2-1.1,2.8-1.399c6.8-1.4,8.8-2.101,9.5-3.3c0.4-0.7,2.3-1.601,4.2-2c1.9-0.301,3.5-1,3.5-1.5c0-0.4,1.6-1.101,3.5-1.5
	c2-0.301,3.5-1.2,3.5-2c0-0.678,0.361-1.188,0.775-1.335c0.09,0.039,0.181,0.077,0.273,0.111
	C765.495,717.581,765.685,813.096,765.586,999.2z M764.241,679.665c-0.556-0.211-1.145-0.286-1.736-0.246
	c-2.024-0.912-4.719-3.421-4.719-4.919c0-0.6-1.6-1.7-3.5-2.4c-1.9-0.699-4-2.1-4.5-3.199c-0.6-1-2-1.9-3.1-1.9
	c-1.2,0-2.301-0.8-2.601-1.9c-0.3-1.1-1.7-2.3-3.2-2.6c-3.1-0.7-6.399-3.3-7.399-5.8c-0.3-0.9-1.601-1.7-2.7-1.7s-2-0.7-2-1.5
	s-0.9-1.9-2-2.5s-2-1.7-2-2.5s-0.5-1.5-1.2-1.5c-1.6,0-15.8-14.6-15.8-16.2c0-0.7-1.3-1.899-3-2.6c-1.6-0.8-3-2-3-2.8
	c0-0.801-1.6-3-3.5-5c-1.9-1.9-3.5-4.301-3.5-5.301s-0.9-2.1-2-2.399s-2.2-1.7-2.6-3.3c-0.4-1.601-1.5-4-2.601-5.301
	c-1-1.3-1.8-2.8-1.8-3.399c0-0.5-0.6-1.5-1.4-2.101c-1.8-1.399-3-13.3-1.399-13.8c0.8-0.3,0.899-1.1,0.3-2.399
	c-0.4-1-0.7-2.5-0.6-3.2c0.1-0.8-0.2-1.9-0.801-2.5c-1-1.2-2.3-16.601-2.5-29.5c0-3.9-0.3-7.2-0.6-7.2s-0.6-1.6-0.7-3.5
	c-0.1-1.9,0.3-3.5,0.8-3.5c1.4,0,1.101-2-0.6-3.6c-1.4-1.4-2-4.101-1.6-7.2c0.1-0.8-0.2-1.9-0.7-2.5c-1.3-1.601-2.2-10.7-1.1-10.7
	c0.5,0,0.899-0.7,0.899-1.5s-0.7-1.5-1.6-1.5c-1.101,0-1.4-0.5-1-1.6c0.399-0.9-0.3-4.9-1.4-8.9c-1.1-4-1.7-8-1.399-9
	c0.399-0.9,0.1-2-0.5-2.5c-0.7-0.4-1.5-2.6-1.801-4.9c-0.3-2.2-1-4.1-1.5-4.1c-0.399,0-0.6-1-0.3-2.3c0.4-1.5,0.101-2.8-0.899-3.6
	c-0.9-0.8-1.601-2.4-1.601-3.6c0-4.4-1.3-8.5-2.6-8.5c-1.4,0-1.8-1.1-1.5-4.3c0.1-0.9-0.4-1.7-1.3-1.7c-0.9,0-1.601-0.8-1.601-1.9
	c0-1-0.7-2.4-1.5-3.1c-0.899-0.7-1.3-2.1-1-3.1c0.4-1.1-0.2-2.7-1.399-4.1c-1.2-1.2-2.101-2.9-2.101-3.7c0-0.9-0.899-2.2-2-2.9
	c-1.1-0.7-2-2-2.1-3c0-0.9-0.8-2.9-1.7-4.3c-4.7-7.2-7.8-11.5-8.9-12.2c-0.699-0.4-2-2.3-2.899-4.2c-0.9-1.9-2.3-3.5-3-3.5
	c-0.8,0-1.9-1.2-2.4-2.6c-0.6-1.4-1.899-2.8-3-3.1c-1.1-0.3-2-1.4-2-2.4c0-1.1-0.399-1.9-1-1.9c-0.5,0-1-0.6-1-1.3
	c0-0.6-1.399-2-3.1-3c-1.7-0.9-3.3-2.5-3.601-3.5c-0.199-1-1.8-2.4-3.5-3.1c-1.699-0.8-3.3-2.2-3.5-3.2c-0.3-1.1-1.3-1.9-2.199-1.9
	c-0.9,0-2.101-1-2.601-2.3c-0.6-1.2-2-2.6-3.3-3.2c-1.2-0.5-2.5-1.8-2.8-2.7c-0.3-1-1.2-1.8-2-1.8c-0.9,0-3.5-1.6-5.8-3.5
	c-2.4-1.9-4.8-3.5-5.5-3.5c-0.601,0-1.101-0.4-1.101-0.9s-1.1-1.2-2.399-1.5c-1.3-0.3-2.601-1.5-2.9-2.6c-0.3-1.2-1.3-2-2.6-2
	c-1.2,0-2.101-0.6-2.101-1.4c0-0.8-1.5-1.7-3.5-2c-1.899-0.4-3.5-1.1-3.5-1.6c0-0.6-0.899-1-2-1c-1.1,0-2.899-0.9-4-2
	c-1.1-1.1-3.1-2.2-4.399-2.6c-1.4-0.3-3-1.2-3.7-2c-0.6-0.8-2.4-1.4-4-1.4c-1.5,0-3.1-0.5-3.4-1c-0.3-0.6-1.5-1-2.6-1
	c-1.2,0-1.9-0.7-1.9-2c0-2.2-2.6-2.8-3.3-0.8c-0.3,0.9-1.1,0.7-2.8-0.7c-1.3-1.2-5-2.9-8.1-4c-3.2-1-5.801-2.2-5.801-2.7
	c0-0.4-1.399-0.8-3-0.8c-2.699,0-6.5-1.5-8-3c-0.3-0.3-3-1.2-6-1.9c-3-0.8-6-1.8-6.7-2.3c-0.601-0.5-1.7-0.8-2.5-0.6
	c-1.9,0.4-13.801-3.4-13.801-4.5c0-0.5-1.199-0.6-2.699-0.3c-1.7,0.4-4,0-5.7-0.9c-1.5-0.8-4.101-1.5-5.7-1.5c-1.5,0-3.1-0.5-3.4-1
	c-0.3-0.6-1.6-1-2.8-1s-4.7-0.9-7.7-2s-6-1.8-6.7-1.6c-0.699,0.3-1.5,0.1-1.8-0.4s-3-1.2-6-1.5c-3.1-0.4-5.8-1.1-6.1-1.6
	s-3.2-0.9-6.6-0.9c-5.2,0-6.101-0.3-6.5-2.1c-0.5-1.6-1.101-1.9-3.301-1.4c-1.5,0.3-4.699,0-7.1-0.8c-2.4-0.8-5.3-1.5-6.4-1.5
	c-1.1,0-6.5-0.7-12-1.6c-5.5-0.8-13.399-2-17.5-2.6c-4.1-0.6-8.3-1.5-9.3-2.1c-1-0.5-2.7-0.7-3.8-0.4
	c-1.23,0.41-3.225,0.381-4.97,0.109c-0.28-0.712-0.709-1.363-1.288-1.884c31.931-1.298,411.72-0.963,413.158,0.475h-0.001
	c0.9,0.9,1.2,45.7,1.2,195.5C765.786,657.09,765.591,678.551,764.241,679.665z"/>
</svg>
